<svg width="272" height="326" viewBox="0 0 272 326" fill="none" xmlns="http://www.w3.org/2000/svg">
<g opacity="0.24" clip-path="url(#clip0_714_491)">
<path d="M242.65 111.828C229.982 98.1759 214.811 87.0825 197.96 79.1503C196.911 73.1823 194.625 67.4999 191.249 62.4685C187.606 57.071 182.782 52.5734 177.143 49.3163C171.505 46.0593 165.199 44.1282 158.703 43.6693C144.766 42.8584 130.783 43.5521 116.994 45.7383C109.803 39.0507 100.817 34.6056 91.1376 32.9475C81.4581 31.2894 71.5051 32.4903 62.4978 36.4032C57.686 38.4603 52.8079 40.6555 47.949 42.9701C42.8393 45.4325 37.498 48.3779 32.0531 51.6877C25.2284 55.8425 19.49 61.5613 15.3119 68.3718C11.1338 75.1823 8.63589 82.889 8.02443 90.8555C7.71783 94.6104 7.82476 98.3877 8.34328 102.119C-1.42032 112.234 -10.071 123.368 -17.4603 135.328C-20.8147 140.91 -22.8516 147.184 -23.4161 153.673C-23.9806 160.161 -23.0578 166.693 -20.7179 172.771C-18.5089 178.481 -15.1135 183.658 -10.756 187.959C-13.9039 206.289 -13.5091 225.052 -9.59304 243.234C-8.11601 250.422 -4.37092 256.947 1.09131 261.848C6.55353 266.749 13.4445 269.768 20.7505 270.46C28.2724 271.289 35.8613 269.676 42.3961 265.86C48.9308 262.044 54.0645 256.227 57.0387 249.269C63.1519 236.59 70.7439 224.68 79.6566 213.786C79.6566 213.786 86.3736 212.091 89.6035 210.806C97.4261 207.566 104.027 201.94 108.465 194.73C113.734 194.654 118.913 193.354 123.593 190.932C128.177 188.493 132.148 185.048 135.21 180.854C143.638 181.334 152.004 179.148 159.12 174.606C161.993 172.686 167.278 168.158 167.278 168.158C181.329 166.959 195.475 167.555 209.375 169.932C216.781 171.485 224.491 170.614 231.364 167.448C238.237 164.282 243.91 158.989 247.543 152.351C251.191 145.968 252.685 138.579 251.804 131.28C250.922 123.98 247.712 117.16 242.65 111.828ZM37.1966 240.486C36.0512 243.254 34.0353 245.573 31.4541 247.093C28.8728 248.613 25.8667 249.251 22.8905 248.91C20.1243 248.684 17.5093 247.555 15.4484 245.696C13.3876 243.837 11.9954 241.351 11.4865 238.623C8.70563 225.797 7.97121 212.613 9.31044 199.558L49.5577 212.242C50.6826 212.596 51.8481 212.714 52.9821 213.003C47.1589 221.185 37.2096 240.444 37.1966 240.486ZM81.6029 190.655C73.4585 193.896 64.4464 194.232 56.0829 191.608L13.2969 178.125C10.1556 177.142 7.27977 175.456 4.88831 173.194C2.49685 170.933 0.652772 168.156 -0.503609 165.074C-1.67181 162.047 -2.13465 158.794 -1.85698 155.561C-1.57931 152.328 -0.568417 149.201 1.09887 146.418C5.79055 138.737 11.1186 131.464 17.0268 124.675C19.427 128.172 22.2595 131.352 25.4572 134.139L84.853 186.029C85.3986 186.53 86.0439 186.858 86.616 187.311C85.158 188.716 83.4602 189.848 81.6029 190.655ZM113.483 171.75C111.208 172.955 108.615 173.425 106.062 173.096C103.508 172.766 101.119 171.654 99.2241 169.911L39.6859 117.896C36.1363 114.794 33.3745 110.893 31.6282 106.514C29.8819 102.135 29.201 97.404 29.6416 92.7104C29.9828 88.1337 31.4075 83.7038 33.798 79.7862C36.1886 75.8686 39.4764 72.5756 43.3903 70.1789C48.2424 67.2382 52.9425 64.6353 57.4241 62.4741C61.9057 60.3128 66.4949 58.2422 71.0147 56.3199C75.2016 54.4958 79.7595 53.6844 84.3187 53.9517C88.8779 54.219 93.3099 55.5574 97.2549 57.8582C101.2 60.1591 104.547 63.3576 107.025 67.1943C109.502 71.0309 111.04 75.3976 111.514 79.94L120.344 158.619C120.642 161.243 120.148 163.895 118.925 166.236C117.703 168.576 115.807 170.496 113.483 171.75ZM162.678 136.1C160.037 144.457 154.597 151.649 147.275 156.465C145.628 157.482 143.821 158.213 141.931 158.627C141.89 157.82 141.928 157.015 141.843 156.205L133.02 77.5396C132.579 73.5477 131.677 69.6203 130.332 65.8358C139.241 64.884 148.212 64.6757 157.155 65.2129C160.392 65.4412 163.534 66.4051 166.342 68.0312C169.15 69.6574 171.55 71.9028 173.359 74.5966C175.225 77.3169 176.444 80.4277 176.924 83.6914C177.403 86.9551 177.131 90.2852 176.126 93.4273L162.678 136.1ZM228.657 141.759C227.23 144.393 224.983 146.49 222.258 147.733C219.533 148.977 216.477 149.298 213.552 148.65C213.552 148.65 192.027 145.746 181.978 145.847C182.402 144.755 182.963 143.729 183.318 142.604L196.001 102.357C207.465 108.745 217.847 116.906 226.76 126.538C228.695 128.52 229.928 131.08 230.271 133.829C230.613 136.578 230.046 139.363 228.657 141.759Z" fill="#DDB62E"/>
</g>
<defs>
<clipPath id="clip0_714_491">
<rect width="259.684" height="259.684" fill="white" transform="translate(24.0537) rotate(17.492)"/>
</clipPath>
</defs>
</svg>
