<svg width="239" height="268" viewBox="0 0 239 268" fill="none" xmlns="http://www.w3.org/2000/svg">
<g opacity="0.24" clip-path="url(#clip0_714_490)">
<path d="M229.972 207.608C234.204 192.389 235.475 176.5 233.716 160.802C237.561 157.392 240.649 153.215 242.783 148.54C245.063 143.51 246.168 138.026 246.015 132.506C245.862 126.985 244.454 121.571 241.899 116.675C236.291 106.247 229.575 96.4541 221.868 87.4656C223.503 79.2985 222.72 70.8319 219.616 63.1029C216.512 55.3738 211.221 48.7178 204.391 43.9502C200.767 41.3885 197.013 38.8404 193.182 36.3592C189.132 33.7624 184.63 31.213 179.82 28.7508C173.785 25.6674 167.104 24.0638 160.327 24.0724C153.551 24.0811 146.873 25.7018 140.847 28.8007C137.998 30.248 135.317 32.0039 132.852 34.0369C121.206 31.4795 109.319 30.1785 97.3955 30.1561C91.872 30.2141 86.4344 31.5311 81.4965 34.007C76.5586 36.4829 72.2505 40.0524 68.8998 44.4439C65.7567 48.5774 63.5264 53.3307 62.3561 58.3899C47.716 64.2624 34.3373 72.8867 22.944 83.796C18.4076 88.0577 15.3588 93.6629 14.246 99.7868C13.1331 105.911 14.0151 112.23 16.7621 117.815C19.5062 123.617 24.0439 128.383 29.7048 131.407C35.3657 134.432 41.8493 135.555 48.1977 134.611C60.0731 133.392 72.051 133.583 83.8815 135.179C83.8815 135.179 88.0912 139.278 90.455 141.04C96.2718 145.251 103.269 147.519 110.45 147.521C112.847 151.293 116.088 154.456 119.917 156.761C123.716 158.988 127.97 160.326 132.36 160.673C135.759 166.975 141.056 172.046 147.5 175.168C150.163 176.391 155.784 178.196 155.784 178.196C162.894 187.813 168.75 198.297 173.211 209.394C175.381 215.434 179.436 220.616 184.778 224.174C190.12 227.732 196.464 229.477 202.874 229.152C209.107 228.95 215.108 226.746 219.989 222.865C224.87 218.984 228.371 213.634 229.972 207.608ZM45.7238 116.374C43.2153 116.777 40.6438 116.351 38.3986 115.162C36.1534 113.973 34.3566 112.085 33.2802 109.784C32.2141 107.685 31.8679 105.294 32.2949 102.979C32.7219 100.664 33.8984 98.5541 35.6431 96.9739C43.6719 89.2651 52.8697 82.8749 62.8954 78.0403L71.6202 112.751C71.864 113.721 72.2969 114.615 72.592 115.563C64.0933 114.993 45.7594 116.365 45.7238 116.374ZM101.456 126.305C95.495 121.862 91.2464 115.502 89.4249 108.294L80.1498 71.3944C79.4635 68.6885 79.4034 65.8617 79.9742 63.1291C80.545 60.3965 81.7316 57.8302 83.4437 55.6253C85.1112 53.4361 87.2557 51.6558 89.7143 50.4197C92.1729 49.1835 94.881 48.5241 97.6326 48.4914C105.266 48.4672 112.888 49.0836 120.418 50.3342C118.958 53.6222 117.92 57.0815 117.328 60.6299L106.242 126.597C106.122 127.214 106.172 127.826 106.099 128.44C104.436 128.012 102.864 127.289 101.456 126.305ZM129.281 140.933C127.399 139.825 125.907 138.161 125.01 136.17C124.113 134.179 123.855 131.959 124.272 129.815L135.385 63.6895C136.048 59.7467 137.639 56.0179 140.026 52.8103C142.413 49.6028 145.528 47.0083 149.114 45.2406C152.572 43.4531 156.405 42.5134 160.298 42.4992C164.19 42.4849 168.03 43.3964 171.501 45.1585C175.781 47.3565 179.751 49.595 183.304 51.8719C186.857 54.1487 190.392 56.5435 193.789 58.9541C196.968 61.1679 199.579 64.0999 201.413 67.5121C203.246 70.9243 204.249 74.7206 204.34 78.593C204.431 82.4653 203.608 86.3047 201.938 89.7994C200.267 93.2942 197.797 96.3459 194.726 98.7069L141.815 140.053C140.052 141.435 137.917 142.257 135.683 142.413C133.449 142.57 131.219 142.054 129.281 140.933ZM176.897 160.625C169.686 162.432 162.073 161.698 155.34 158.55C153.874 157.812 152.543 156.832 151.403 155.65C151.968 155.262 152.567 154.932 153.114 154.511L206.018 113.175C208.705 111.083 211.142 108.686 213.278 106.033C217.924 112.044 222.062 118.433 225.649 125.131C226.922 127.571 227.622 130.269 227.696 133.02C227.769 135.772 227.214 138.503 226.072 141.007C224.936 143.564 223.231 145.827 221.086 147.624C218.942 149.421 216.415 150.704 213.699 151.375L176.897 160.625ZM202.132 210.801C199.595 210.941 197.082 210.251 194.972 208.835C192.863 207.418 191.272 205.354 190.441 202.953C190.441 202.953 182.972 186.114 178.434 178.899C179.41 178.72 180.401 178.669 181.371 178.426L216.081 169.701C216.562 180.821 215.28 191.947 212.284 202.667C211.713 204.945 210.411 206.974 208.577 208.443C206.744 209.912 204.48 210.74 202.132 210.801Z" fill="#DDB62E"/>
</g>
<defs>
<clipPath id="clip0_714_490">
<rect width="220.247" height="220.247" fill="white" transform="translate(213.603) rotate(75.8905)"/>
</clipPath>
</defs>
</svg>
