<svg width="747" height="670" viewBox="0 0 747 670" fill="none" xmlns="http://www.w3.org/2000/svg">
<g opacity="0.26">
<path d="M745.619 313.692C745.619 486.643 599.025 626.884 418.145 626.884C237.266 626.884 90.6719 486.643 90.6719 313.692C90.6719 140.742 237.266 0.5 418.145 0.5C599.025 0.5 745.619 140.742 745.619 313.692Z" fill="#FFA800" stroke="white"/>
<path d="M663.753 313.187C663.753 442.825 553.812 547.956 418.145 547.956C282.478 547.956 172.537 442.825 172.537 313.187C172.537 183.549 282.478 78.418 418.145 78.418C553.812 78.418 663.753 183.549 663.753 313.187Z" fill="#E6E6E6" stroke="white"/>
<path d="M636.124 313.186C636.124 428.853 538.094 522.657 417.122 522.657C296.149 522.657 198.12 428.853 198.12 313.186C198.12 197.519 296.149 103.715 417.122 103.715C538.094 103.715 636.124 197.519 636.124 313.186Z" fill="#3A0B0B" stroke="white"/>
<path d="M71.293 462.74C71.293 462.74 150.674 452.385 143.52 487.432M227.687 626.423C227.687 626.423 243.422 547.589 194.345 560.945" stroke="white" stroke-width="60"/>
<path d="M144.569 486.769C144.569 486.769 172.944 486.059 189.503 505.435C206.062 524.81 194.752 560.683 194.752 560.683" stroke="white" stroke-width="60"/>
<path d="M70.896 462.181C110.363 546.402 142.456 578.861 228.37 626.792" stroke="white" stroke-width="60"/>
<path d="M0.619141 638.015V537.824H101.951V638.015H0.619141Z" stroke="white"/>
<rect x="0.710956" y="-0.0119682" width="44.7281" height="69.8176" rx="15.5" transform="matrix(0.699122 -0.715003 0.722791 0.691067 565.989 479.717)" fill="#E6E6E6" stroke="white"/>
</g>
</svg>
