<svg width="96" height="92" viewBox="0 0 96 92" fill="none" xmlns="http://www.w3.org/2000/svg">
<g clip-path="url(#clip0_714_371)">
<path d="M68.7002 23.5515C68.7218 12.6694 59.523 3.83666 48.1678 3.83743H24.7023C8.92826 3.60512 -1.19255 19.8243 6.48466 33.0317C8.60146 36.6734 11.8727 39.5749 15.8247 41.3167L10.8187 81.87C10.3959 85.2191 13.1255 88.1685 16.6459 88.1666H62.8338L57.0454 41.1669C64.1382 37.9276 68.6682 31.0813 68.7002 23.5515Z" stroke="#E9A400" stroke-width="6.5" stroke-linecap="round" stroke-linejoin="round"/>
<path d="M62.8359 88.1662H79.6919C83.2123 88.1681 85.9415 85.2188 85.5191 81.8696L80.5131 41.1665C94.7231 34.6006 96.1875 15.7547 83.1491 7.24398C79.7539 5.02831 75.7427 3.84113 71.6355 3.83691H48.1699" stroke="#E9A400" stroke-width="6.5" stroke-linecap="round" stroke-linejoin="round"/>
<path d="M80.5123 41.1289H57.0859" stroke="#E9A400" stroke-width="6.5" stroke-linecap="round" stroke-linejoin="round"/>
<g clip-path="url(#clip1_714_371)">
<path d="M68.7002 23.5515C68.7218 12.6694 59.523 3.83666 48.1678 3.83743H24.7023C8.92826 3.60512 -1.19255 19.8243 6.48466 33.0317C8.60146 36.6734 11.8727 39.5749 15.8247 41.3167L10.8187 81.87C10.3959 85.2191 13.1255 88.1685 16.6459 88.1666H62.8338L57.0454 41.1669C64.1382 37.9276 68.6682 31.0813 68.7002 23.5515Z" stroke="#E9A400" stroke-width="6.5" stroke-linecap="round" stroke-linejoin="round"/>
<path d="M62.8359 88.1662H79.6919C83.2123 88.1681 85.9415 85.2188 85.5191 81.8696L80.5131 41.1665C94.7231 34.6006 96.1875 15.7547 83.1491 7.24398C79.7539 5.02831 75.7427 3.84113 71.6355 3.83691H48.1699" stroke="#E9A400" stroke-width="6.5" stroke-linecap="round" stroke-linejoin="round"/>
<path d="M80.5123 41.1289H57.0859" stroke="#E9A400" stroke-width="6.5" stroke-linecap="round" stroke-linejoin="round"/>
</g>
</g>
<defs>
<clipPath id="clip0_714_371">
<rect width="96" height="92" fill="white"/>
</clipPath>
<clipPath id="clip1_714_371">
<rect width="96" height="92" fill="white"/>
</clipPath>
</defs>
</svg>
