<svg width="113" height="118" viewBox="0 0 113 118" fill="none" xmlns="http://www.w3.org/2000/svg">
<path d="M82.3146 89.8721C65.0921 107.691 39.7976 116.753 21.8796 99.6962C20.9914 98.8506 20.0971 97.9606 19.1984 97.0241C18.2997 96.0876 17.4458 95.1557 16.6344 94.2301C0.265802 75.5567 8.94782 49.182 26.0318 31.2191C26.6652 30.5531 27.3138 29.8739 27.9775 29.1815C28.6413 28.4894 29.2925 27.8128 29.9311 27.1521C47.1535 9.33363 72.4481 0.271014 90.3662 17.3282C91.2543 18.1737 92.1486 19.0636 93.0472 20.0002C93.9459 20.9367 94.7999 21.8687 95.6114 22.7943C111.98 41.4676 103.298 67.8423 86.2142 85.8051C85.5805 86.4712 84.9321 87.1504 84.2682 87.8428C83.6044 88.5352 82.9532 89.2115 82.3146 89.8721Z" stroke="#E9A400" stroke-width="7" stroke-linecap="round" stroke-linejoin="round"/>
<path d="M95.1386 22.1847C76.0707 24.3172 61.7898 35.6455 56.1229 58.5123C50.456 81.3794 36.175 92.7076 17.1072 94.8403" stroke="#E9A400" stroke-width="7" stroke-linecap="round" stroke-linejoin="round"/>
</svg>
