<svg width="163" height="163" viewBox="0 0 163 163" fill="none" xmlns="http://www.w3.org/2000/svg">
<g clip-path="url(#clip0_714_361)">
<path d="M144.939 89.8002C142.426 81.8594 138.434 74.3885 133.181 67.793C133.877 65.2591 134.024 62.5775 133.615 59.9208C133.167 57.0665 132.079 54.3147 130.434 51.8739C128.788 49.433 126.628 47.3672 124.117 45.8328C118.698 42.6081 112.978 39.9572 107.058 37.9261C105.433 33.8304 102.671 30.2298 99.1119 27.5655C95.5524 24.9011 91.3494 23.2886 87.0177 22.9256C84.7099 22.7187 82.3498 22.5516 79.975 22.4349C77.4723 22.323 74.7868 22.3502 71.9919 22.4971C68.4874 22.6836 65.125 23.7037 62.1824 25.473C59.2397 27.2423 56.8012 29.7101 55.0683 32.6725C54.2441 34.065 53.5811 35.5525 53.0912 37.1082C47.2983 38.9931 41.7601 41.5052 36.5716 44.6014C34.1876 46.0665 32.201 48.0749 30.763 50.4738C29.3251 52.8727 28.4735 55.599 28.2733 58.4453C28.0894 61.1215 28.4795 63.8384 29.4177 66.4166C24.7345 72.8694 21.3864 80.2301 19.5547 88.1002C18.802 91.197 19.08 94.51 20.3477 97.5516C21.6155 100.593 23.806 103.203 26.5972 104.997C29.4491 106.889 32.7841 107.849 36.1093 107.733C39.4346 107.617 42.5736 106.433 45.0627 104.355C49.8753 100.713 55.1356 97.6786 60.7338 95.3139C60.7338 95.3139 63.7356 96.0591 65.2668 96.235C68.9992 96.6118 72.6889 95.8079 75.8103 93.9378C77.9307 95.0085 80.2439 95.5856 82.5672 95.6236C84.8552 95.6348 87.0866 95.1277 89.0938 94.1402C92.3734 96.0862 96.1259 96.9849 99.8192 96.7091C101.327 96.5647 104.285 95.9115 104.285 95.9115C110.126 98.3805 115.669 101.566 120.782 105.39C123.452 107.539 126.697 108.811 130.036 109.018C133.375 109.225 136.631 108.357 139.324 106.54C141.975 104.826 143.953 102.272 144.964 99.2568C145.976 96.2414 145.967 92.9254 144.939 89.8002ZM38.772 96.8045C37.797 97.639 36.5577 98.1178 35.2419 98.1684C33.926 98.219 32.6052 97.8387 31.4792 97.0851C30.4157 96.4198 29.5814 95.4355 29.1049 94.2841C28.6285 93.1327 28.5363 91.8779 28.8426 90.7134C30.1274 85.1578 32.2973 79.8902 35.2719 75.1059L48.9905 88.43C49.374 88.8024 49.8179 89.0914 50.2171 89.4404C46.3605 91.3983 38.7849 96.7912 38.772 96.8045ZM65.8338 86.7479C61.9726 86.3045 58.3071 84.5533 55.4541 81.7891L40.8701 67.6246C39.798 66.5875 38.9635 65.3329 38.43 63.9563C37.8966 62.5797 37.6784 61.1174 37.7919 59.6806C37.8905 58.2625 38.3134 56.9039 39.0284 55.7079C39.7434 54.5119 40.7318 53.5101 41.9183 52.7786C45.2288 50.7791 48.7176 49.0705 52.3479 47.6707C52.6539 49.5284 53.1921 51.3533 53.9496 53.102L67.9972 85.6324C68.1217 85.9407 68.3184 86.2027 68.4625 86.4977C67.6172 86.7383 66.7269 86.823 65.8338 86.7479ZM82.11 86.0719C80.9753 86.0643 79.851 85.7052 78.8917 85.0442C77.9325 84.3833 77.1855 83.4528 76.7536 82.381L62.6723 49.7726C61.833 47.8281 61.458 45.7382 61.578 43.675C61.6981 41.6119 62.3099 39.6346 63.363 37.906C64.3545 36.202 65.7517 34.7811 67.4393 33.7607C69.1269 32.7402 71.0565 32.1494 73.0688 32.0371C75.5579 31.9095 77.9231 31.8813 80.1184 31.9788C82.3137 32.0763 84.535 32.2314 86.701 32.4295C88.7155 32.5962 90.6891 33.2333 92.4616 34.289C94.2342 35.3447 95.7558 36.7893 96.9029 38.5055C98.05 40.2218 98.7903 42.1614 99.0638 44.1669C99.3373 46.1724 99.1362 48.1874 98.4769 50.0483L87.306 82.4113C86.935 83.4912 86.2418 84.417 85.3158 85.0694C84.3897 85.7218 83.2732 86.071 82.11 86.0719ZM108.436 82.516C105.819 85.206 102.301 86.8598 98.4738 87.1991C97.6256 87.2498 96.7668 87.156 95.9337 86.9218C96.0682 86.6003 96.2338 86.296 96.3511 85.9642L107.522 53.6079C108.092 51.9674 108.465 50.2556 108.635 48.5069C112.374 49.9979 115.999 51.7905 119.473 53.8662C120.725 54.6306 121.8 55.6606 122.619 56.8777C123.438 58.0949 123.978 59.467 124.197 60.8896C124.435 62.3345 124.341 63.7957 123.923 65.1619C123.505 66.528 122.774 67.7627 121.785 68.7717L108.436 82.516ZM133.753 98.4882C132.691 99.2119 131.401 99.5563 130.079 99.4695C128.758 99.3827 127.476 98.8694 126.428 98.0071C126.428 98.0071 118.366 92.3862 114.33 90.3268C114.703 89.9917 115.12 89.7111 115.471 89.3488L128.062 76.3857C131.451 81.2573 134.076 86.5906 135.839 92.188C136.242 93.3608 136.257 94.6116 135.88 95.7493C135.504 96.887 134.757 97.849 133.753 98.4882Z" fill="#E9A400" fill-opacity="0.56"/>
</g>
<defs>
<clipPath id="clip0_714_361">
<rect width="117.687" height="111.205" fill="white" transform="translate(78.4521 0.777344) rotate(44.164)"/>
</clipPath>
</defs>
</svg>
