<svg width="117" height="108" viewBox="0 0 117 108" fill="none" xmlns="http://www.w3.org/2000/svg">
<g opacity="0.87">
<path d="M36.1729 26.7908C33.9162 26.2485 31.636 25.7936 29.3381 25.4273C27.9133 25.2034 26.4512 25.2971 25.0736 25.7006C23.696 26.1042 22.4429 26.8058 21.4187 27.7471C16.3145 32.4023 7.31286 43.1101 7.31286 60.7501C7.31286 77.4518 8.10748 87.5521 8.78998 93.1433C9.2263 96.7208 12.2439 99.3466 16.1269 99.6953C23.4637 100.357 37.3087 101.248 58.5296 101.248C79.7359 101.248 93.5516 100.357 100.879 99.6953C104.757 99.3466 107.774 96.7231 108.211 93.1478C108.852 87.8873 109.595 78.6331 109.681 63.6368C109.69 61.7626 109.098 59.9153 107.713 58.5428C99.6137 50.5351 81.0789 41.7533 63.2852 35.1878" stroke="#E9A400" stroke-width="6" stroke-linecap="round" stroke-linejoin="round"/>
<path d="M34.125 33.75C34.125 35.5228 34.5033 37.2783 35.2383 38.9162C35.9732 40.5541 37.0505 42.0424 38.4086 43.2959C39.7666 44.5495 41.3789 45.5439 43.1533 46.2224C44.9276 46.9008 46.8294 47.25 48.75 47.25C50.6706 47.25 52.5724 46.9008 54.3467 46.2224C56.1211 45.5439 57.7334 44.5495 59.0914 43.2959C60.4495 42.0424 61.5268 40.5541 62.2617 38.9162C62.9967 37.2783 63.375 35.5228 63.375 33.75C63.375 30.1696 61.8342 26.7358 59.0914 24.2041C56.3487 21.6723 52.6288 20.25 48.75 20.25C44.8712 20.25 41.1513 21.6723 38.4086 24.2041C35.6658 26.7358 34.125 30.1696 34.125 33.75Z" stroke="#E9A400" stroke-width="6" stroke-linecap="round" stroke-linejoin="round"/>
<path d="M48.75 20.25C48.75 12.7935 54.7219 6.75 63.375 6.75" stroke="#E9A400" stroke-width="6" stroke-linecap="round" stroke-linejoin="round"/>
<path d="M9.75 81H107.25" stroke="#E9A400" stroke-width="6" stroke-linecap="round" stroke-linejoin="round"/>
<path d="M7.3125 60.75H107.25" stroke="#E9A400" stroke-width="6" stroke-linecap="round" stroke-linejoin="round"/>
</g>
</svg>
