<svg width="104" height="104" viewBox="0 0 104 104" fill="none" xmlns="http://www.w3.org/2000/svg">
<path d="M90.5956 19.9768C88.3823 17.7625 85.7545 16.0059 82.8621 14.8075C79.9698 13.609 76.8697 12.9922 73.7389 12.9922C70.6082 12.9922 67.508 13.609 64.6157 14.8075C61.7234 16.0059 59.0955 17.7625 56.8823 19.9768L52.2889 24.5701L47.6956 19.9768C43.2249 15.5061 37.1614 12.9945 30.8389 12.9945C24.5165 12.9945 18.4529 15.5061 13.9823 19.9768C9.51159 24.4474 7 30.511 7 36.8334C7 43.1559 9.51159 49.2194 13.9823 53.6901L18.5756 58.2834L52.2889 91.9968L86.0023 58.2834L90.5956 53.6901C92.8099 51.4768 94.5665 48.849 95.7649 45.9566C96.9633 43.0643 97.5802 39.9642 97.5802 36.8334C97.5802 33.7027 96.9633 30.6025 95.7649 27.7102C94.5665 24.8179 92.8099 22.19 90.5956 19.9768Z" stroke="#E9A400" stroke-width="6" stroke-linecap="round" stroke-linejoin="round"/>
</svg>
