<svg width="125" height="124" viewBox="0 0 125 124" fill="none" xmlns="http://www.w3.org/2000/svg">
<path d="M93.3682 49.9952L32.0684 49.6357L43.1605 118.195L85.3041 118.442L93.3682 49.9952Z" stroke="#E9A400" stroke-width="6.5" stroke-linecap="round" stroke-linejoin="round"/>
<path d="M20.5762 49.5684L104.863 50.0626" stroke="#E9A400" stroke-width="6.5" stroke-linecap="round" stroke-linejoin="round"/>
<path d="M93.3694 49.9946C93.4167 41.9212 90.2332 34.1595 84.5183 28.417C78.8038 22.6746 71.0268 19.4217 62.898 19.374C54.7691 19.3264 46.9544 22.4878 41.1729 28.1629C35.3915 33.838 32.1169 41.5618 32.0696 49.6352" stroke="#E9A400" stroke-width="6.5" stroke-linecap="round" stroke-linejoin="round"/>
<path d="M58.8425 80.2341L72.6722 12.0998C72.906 11.0894 73.3453 10.137 73.9627 9.30118C74.5801 8.46531 75.3633 7.76365 76.2639 7.23919C77.1645 6.71473 78.1632 6.37855 79.1994 6.25129C80.2351 6.12403 81.2865 6.20837 82.2886 6.49912L101.255 11.9884" stroke="#E9A400" stroke-width="6.5" stroke-linecap="round" stroke-linejoin="round"/>
<path d="M36.998 80.1064L89.7823 80.4159" stroke="#E9A400" stroke-width="6.5" stroke-linecap="round" stroke-linejoin="round"/>
</svg>
