<svg width="18" height="18" viewBox="0 0 18 18" fill="none" xmlns="http://www.w3.org/2000/svg">
<path fill-rule="evenodd" clip-rule="evenodd" d="M0.666016 8.99935C0.666016 4.39935 4.39102 0.666016 8.99102 0.666016C13.5993 0.666016 17.3327 4.39935 17.3327 8.99935C17.3327 13.5993 13.5993 17.3327 8.99102 17.3327C4.39102 17.3327 0.666016 13.5993 0.666016 8.99935ZM12.3073 5.66589H14.7656C13.9656 4.29089 12.6906 3.22422 11.1573 2.69922C11.6573 3.62422 12.0406 4.62422 12.3073 5.66589ZM8.99963 2.36621C9.69129 3.36621 10.233 4.47454 10.5913 5.66621H7.40796C7.76629 4.47454 8.30796 3.36621 8.99963 2.36621ZM2.33203 8.9987C2.33203 9.5737 2.41536 10.132 2.5487 10.6654H5.36536C5.2987 10.1154 5.2487 9.56536 5.2487 8.9987C5.2487 8.43203 5.2987 7.88203 5.36536 7.33203H2.5487C2.41536 7.86536 2.33203 8.4237 2.33203 8.9987ZM3.23242 12.332H5.69076C5.95742 13.3737 6.34076 14.3737 6.84076 15.2987C5.30742 14.7737 4.03242 13.7154 3.23242 12.332ZM3.23234 5.66589H5.69067C5.95734 4.62422 6.34067 3.62422 6.84067 2.69922C5.30734 3.22422 4.03234 4.28255 3.23234 5.66589ZM8.99987 15.632C8.3082 14.632 7.76654 13.5237 7.4082 12.332H10.5915C10.2332 13.5237 9.69154 14.632 8.99987 15.632ZM7.04935 10.6663H10.9493C11.0243 10.1163 11.0827 9.56634 11.0827 8.99967C11.0827 8.43301 11.0243 7.87467 10.9493 7.33301H7.04935C6.97435 7.87467 6.91602 8.43301 6.91602 8.99967C6.91602 9.56634 6.97435 10.1163 7.04935 10.6663ZM11.1572 15.2987C11.6572 14.3737 12.0406 13.3737 12.3072 12.332H14.7656C13.9656 13.707 12.6906 14.7737 11.1572 15.2987ZM12.7495 8.99967C12.7495 9.56634 12.6995 10.1163 12.6328 10.6663H15.4495C15.5828 10.133 15.6661 9.57467 15.6661 8.99967C15.6661 8.42467 15.5828 7.86634 15.4495 7.33301H12.6328C12.6995 7.88301 12.7495 8.43301 12.7495 8.99967Z" fill="white"/>
</svg>
